<svg xmlns="http://www.w3.org/2000/svg" fill="none" viewBox="0 0 100 20"><path fill="#fff" d="M87 .3h2.7l3.2 13.3L96 .3h2.5L94 19.7h-2.4L87 .3Zm-1.2 0h2.6l.4 12.8v6.6h-3V.3Zm11.5 0h2.7v19.4h-3v-6.6L97.2.3ZM76.1.3 78.5 9 80.9.3h3.4l-4.2 12.4v7h-3.2v-7L72.7.3H76Zm-3.8 9.2v8l-1 1A6 6 0 0 1 67 20a5 5 0 0 1-4.2-2 7.6 7.6 0 0 1-1.2-2.6c-.2-1-.4-2.3-.4-3.7V8.4c0-1.4.2-2.7.4-3.7A7.7 7.7 0 0 1 62.8 2 4.7 4.7 0 0 1 67 0c1.2 0 2.1.2 2.9.7A4.5 4.5 0 0 1 71.5 3c.4 1 .7 2.2.8 3.6h-3.1a7 7 0 0 0-.4-2c-.1-.4-.4-.8-.7-1-.3-.2-.7-.3-1.1-.3-.4 0-.8.1-1.1.3-.3.2-.6.5-.8.9L64.6 6l-.1 2.3v3.4c0 .9 0 1.7.2 2.3 0 .7.2 1.2.5 1.6.2.4.5.7.8.9.4.2.8.3 1.3.3a2.3 2.3 0 0 0 1.4-.5l.4-.2v-3.6h-2.3v-3h5.5ZM48.5.3h5c1.1 0 2 .2 2.8.6A4.3 4.3 0 0 1 58 3c.4.9.6 2 .6 3.3 0 1-.1 2-.4 2.7a5.2 5.2 0 0 1-1 1.8c-.4.5-.9.9-1.5 1.2l-1 .7h-4V9.3h2.8c.4 0 .8 0 1-.3.4-.2.6-.6.7-1 .2-.4.2-1 .2-1.5 0-.6 0-1.2-.2-1.6a2 2 0 0 0-.6-1 1.5 1.5 0 0 0-1-.4h-1.9v16.2h-3.2V.3Zm7.2 19.4-2.9-8.6h3.3l3 8.4v.2h-3.4Zm-9.8-3.2v3.2h-6.8v-3.2h6.8ZM40 .3v19.4H37V.3H40Zm5 7.9v3.1h-6V8.2h6Zm.9-8v3.3H39V.3h6.8ZM30.4 13h-3.2V9.6h3.2c.5 0 .8 0 1.1-.3l.7-1a5.7 5.7 0 0 0 0-3.1 2.8 2.8 0 0 0-.7-1.2 1.4 1.4 0 0 0-1-.5h-2.3v16.2h-3.1V.3h5.3c1.1 0 2 .3 2.8.8a5.2 5.2 0 0 1 1.7 2.3c.4 1 .6 2 .6 3.3S35.3 9 35 10c-.4.9-1 1.6-1.7 2.1-.8.5-1.7.8-2.8.8ZM19.5.3h3.2v13.3a8.6 8.6 0 0 1-.7 3.7 4.4 4.4 0 0 1-1.8 2c-.8.5-1.7.7-2.7.7s-2-.2-2.7-.6a4.4 4.4 0 0 1-1.8-2.1 8.8 8.8 0 0 1-.7-3.7V.3h3.2v13.3c0 .9 0 1.5.2 2 .1.4.4.8.7 1l1 .2c.5 0 .9-.1 1.2-.3.3-.1.5-.5.7-1l.2-1.9V.3ZM7.1 14.6v-1a2 2 0 0 0-.4-.7 3.1 3.1 0 0 0-.7-.7 7 7 0 0 0-1.2-.8l-1.7-1a8 8 0 0 1-1.4-1.2A5.2 5.2 0 0 1 .2 5.4c0-.8.2-1.5.4-2.2A5 5 0 0 1 3.2.4a5.1 5.1 0 0 1 4.6.4 5 5 0 0 1 1.8 2.1c.4 1 .6 2 .6 3.1H7c0-.5 0-1-.2-1.4a2 2 0 0 0-.6-1 1.6 1.6 0 0 0-1-.4c-.4 0-.8 0-1 .3-.3.2-.5.5-.6.8l-.2 1.2a2 2 0 0 0 .2.8L4 7l.8.6 1 .5 2 1.2a5.9 5.9 0 0 1 2.1 3.1 7.8 7.8 0 0 1 0 4.4 4.4 4.4 0 0 1-2.6 2.8 5.7 5.7 0 0 1-4.1 0 4.9 4.9 0 0 1-2.9-3.1 8.8 8.8 0 0 1-.4-2.9h3.2a7 7 0 0 0 .1 1.5l.4 1a2 2 0 0 0 .7.5c.3.2.7.2 1 .2.5 0 .8 0 1-.3.3-.2.5-.4.6-.8l.1-1Z"/></svg>