<svg xmlns="http://www.w3.org/2000/svg" viewBox="0 0 15 15"><path d="M8.8.6c-.4 0-.8.2-1 .5a2.7 2.7 0 0 0-.6 1.1A9.4 9.4 0 0 0 7 4.3a7.3 7.3 0 0 0-3.4 1A2 2 0 0 0 2.3 5c-.5 0-1 .2-1.3.6-.7.9-.6 2.3.2 3.1v.8c0 2.8 2.8 5 6.3 5s6.4-2.2 6.4-5l-.1-.8c.8-.8.9-2.2.2-3a1.7 1.7 0 0 0-1.4-.7 2 2 0 0 0-1.2.5 7.3 7.3 0 0 0-3.3-1 8.4 8.4 0 0 1 .1-1.8l.3-.7.3-.1c.4 0 .4 0 .7.4l.4.5c.2.1.5.3.8.3V1.8h-.1l-.3-.4C10 1 9.6.6 8.8.6Zm3.6 0c-.9 0-1.6.8-1.6 1.8S11.5 4 12.4 4s1.5-.8 1.5-1.7c0-1-.7-1.7-1.5-1.7Zm0 .7c.5 0 1 .5 1 1 0 .7-.5 1.2-1 1.2s-1-.5-1-1.1c0-.6.4-1.1 1-1.1Zm-4.9 4c3 0 5.5 1.9 5.5 4 0 2.3-2.5 4.2-5.5 4.2S2 11.6 2 9.4c0-2.2 2.5-4.1 5.5-4.1Zm-5.1.5c.1 0 .3 0 .4.2-.5.4-1 1-1.2 1.6-.2-.5-.2-1.1 0-1.4a.9.9 0 0 1 .8-.4Zm10.2 0c.3 0 .6.2.7.4.3.3.3.9.1 1.4A5 5 0 0 0 12.2 6l.4-.2ZM5.3 7.4c-.5 0-1 .5-1 1 0 .7.5 1.2 1 1.2s1-.5 1-1.1c0-.6-.4-1.1-1-1.1Zm4.4 0c-.6 0-1 .5-1 1 0 .7.4 1.2 1 1.2s1-.5 1-1.1c0-.6-.5-1.1-1-1.1ZM4.8 11c.4.8 1.4 1.6 2.7 1.6 1.3 0 2.4-.8 2.7-1.6-.6.5-1.6.8-2.7.8s-2-.3-2.7-.8Z"/></svg>