<svg width="32" height="32" viewBox="0 0 32 32" fill="none" xmlns="http://www.w3.org/2000/svg">
<rect width="32" height="32" fill="url(#paint0_linear_82_506)"/>
<path d="M15.8615 25C14.8564 25 13.9846 24.8498 13.2462 24.5493C12.5077 24.2487 11.9436 23.7179 11.5538 22.9566C11.1846 22.1953 11 21.1235 11 19.7412V18.7195C11.4923 18.7195 11.9949 18.7195 12.5077 18.7195C13.0205 18.7195 13.5231 18.7195 14.0154 18.7195V19.9816C14.0154 20.823 14.0974 21.4741 14.2615 21.9349C14.4256 22.3957 14.6513 22.7162 14.9385 22.8965C15.2256 23.0568 15.5538 23.1369 15.9231 23.1369C16.5179 23.1369 16.9897 22.9466 17.3385 22.5659C17.7077 22.1653 17.8923 21.424 17.8923 20.3422C17.8923 19.5409 17.7692 18.9399 17.5231 18.5392C17.2769 18.1386 16.8872 17.818 16.3538 17.5776C15.841 17.3172 15.1744 17.0267 14.3538 16.7062C13.6769 16.4057 13.0923 16.0551 12.6 15.6544C12.1077 15.2538 11.7385 14.7429 11.4923 14.1219C11.2462 13.5008 11.1231 12.7295 11.1231 11.808C11.1231 10.6861 11.2667 9.77462 11.5538 9.07346C11.8615 8.35225 12.3744 7.83139 13.0923 7.51085C13.8103 7.17028 14.7744 7 15.9846 7C17.5436 7 18.7333 7.35058 19.5538 8.05175C20.3744 8.73289 20.7846 9.73456 20.7846 11.0568V13.1302C20.3128 13.1302 19.8308 13.1302 19.3385 13.1302C18.8667 13.1302 18.3846 13.1302 17.8923 13.1302V11.8982C17.8923 10.9766 17.7385 10.3155 17.4308 9.91486C17.1436 9.49416 16.6718 9.28381 16.0154 9.28381C15.3385 9.28381 14.8462 9.48414 14.5385 9.88481C14.2513 10.2654 14.1077 10.8765 14.1077 11.7179C14.1077 12.4391 14.2513 13 14.5385 13.4007C14.8256 13.7813 15.1949 14.0818 15.6462 14.3022C16.1179 14.5225 16.6 14.7229 17.0923 14.9032C18.0154 15.2437 18.7641 15.5943 19.3385 15.9549C19.9128 16.3155 20.3333 16.7963 20.6 17.3973C20.8667 17.9983 21 18.8498 21 19.9516C21 21.2137 20.7846 22.2154 20.3538 22.9566C19.9436 23.6778 19.3487 24.1987 18.5692 24.5192C17.8103 24.8397 16.9077 25 15.8615 25Z" fill="white"/>
<defs>
<linearGradient id="paint0_linear_82_506" x1="6.32768" y1="9.62149e-06" x2="33.8513" y2="3.40621" gradientUnits="userSpaceOnUse">
<stop stop-color="#ED0233"/>
<stop offset="1" stop-color="#003EB7"/>
</linearGradient>
</defs>
</svg>
